<svg width="587" height="573" xmlns="http://www.w3.org/2000/svg"
    xmlns:xlink="http://www.w3.org/1999/xlink" xml:space="preserve" overflow="hidden"><defs><clipPath id="clip0"><rect x="1709" y="417" width="587" height="573"/></clipPath><clipPath id="clip1"><rect x="1831" y="511" width="369" height="405"/></clipPath><clipPath id="clip2"><rect x="1831" y="511" width="369" height="405"/></clipPath></defs><g clip-path="url(#clip0)" transform="translate(-1709 -417)"><path d="M1714 703C1714 546.703 1843.84 420 2004 420 2164.16 420 2294 546.703 2294 703 2294 859.297 2164.16 986 2004 986 1843.84 986 1714 859.297 1714 703Z" fill="#0C3B74" fill-rule="evenodd" fill-opacity="1"/><g clip-path="url(#clip1)"><g clip-path="url(#clip2)"><path d="M672.137 817.587 642.53 730.979 555.562 730.979C579.923 777.973 621.556 806.836 672.137 817.587ZM688.79 817.607 841.17 818.115C884.065 800.149 878.732 755.888 871.056 734.259L870.799 734.035 745.229 733.744 654.558 471.165C607.485 484.833 589.212 527.147 599.046 561.455ZM748.483 690.057 833.474 690.057C847.354 688.097 848.82 678.474 848.675 671.966L828.465 617.619C824.927 611.161 815.977 602.519 803.417 601.072L715.62 601.072ZM698.043 553.164 807.119 553.919C762.409 485.384 691.595 469.794 669.359 470.245L698.043 553.164" fill="#FFFFFF" fill-rule="evenodd" fill-opacity="1" transform="matrix(1.00033 0 0 -1 1293.18 1352.84)"/><path d="M369.475 295.457 369.475 295.457C367.601 278.516 361.001 265.042 349.603 255.072 338.207 245.104 323.712 240.136 306.087 240.136 285.503 240.136 269.139 247.007 257.026 260.787 244.88 274.568 238.824 293.214 238.824 316.725 238.824 340.674 244.88 359.694 257.026 373.748 269.139 387.833 285.503 394.876 306.087 394.876 323.508 394.876 337.9 390.181 349.332 380.791 360.764 371.401 367.467 358.673 369.475 342.616L338.854 342.616C337.866 350.51 334.463 356.736 328.644 361.398 322.827 366.023 315.41 368.336 306.461 368.336 295.096 368.336 286.183 363.777 279.72 354.692 273.29 345.609 270.056 333.022 270.056 316.895 270.056 301.206 273.253 288.893 279.686 280.013 286.08 271.131 295.029 266.674 306.461 266.674 315.41 266.674 322.827 269.26 328.644 274.434 334.463 279.64 337.866 286.611 338.854 295.457ZM392.78 244.22 392.78 390.792 500.568 390.792 500.568 377.896 500.568 364.866 423.401 364.866 423.401 333.837 495.056 333.837 495.056 321.25 495.056 308.523 423.401 308.523 423.401 270.144 504.038 270.144 504.038 257.248 504.038 244.22ZM528.943 244.22 528.943 390.792 633.261 390.792 633.261 377.896 633.261 364.866 559.563 364.866 559.563 331.594 623.869 331.594 623.869 319.004 623.869 306.278 559.563 306.278 559.563 244.22 544.32 244.22ZM653.64 244.22 653.64 390.792 761.426 390.792 761.426 377.896 761.426 364.866 684.262 364.866 684.262 333.837 755.915 333.837 755.915 321.25 755.915 308.523 684.262 308.523 684.262 270.144 764.897 270.144 764.897 257.248 764.897 244.22ZM821.448 244.22 821.448 364.866 777.148 364.866 777.148 377.796 777.148 390.792 896.361 390.792 896.361 377.896 896.361 364.866 852.067 364.866 852.067 244.22 836.827 244.22ZM962.272 394.672 915.76 240.136 892.249 240.136 938.755 394.672ZM971.215 244.22 971.215 390.792 986.462 390.792 1045.08 390.792C1059.06 390.792 1070.29 387.048 1078.83 379.564 1087.37 372.079 1091.66 362.215 1091.66 349.93 1091.66 335.842 1086.9 325.501 1077.41 319.004 1074.89 317.269 1072.03 315.805 1068.83 314.577 1070.63 313.865 1072.26 313.051 1073.73 312.198 1082.1 307.232 1086.46 298.827 1086.76 287.091L1087.48 263.069C1087.61 258.271 1088.13 254.868 1088.97 252.893 1089.82 250.887 1091.49 249.289 1093.94 248.095L1093.94 244.22 1060.15 244.22C1059.34 245.749 1058.66 249.018 1058.05 254.017 1057.47 259.055 1057.12 264.431 1057.06 270.213L1056.85 283.754C1056.71 290.318 1054.78 295.016 1051.03 297.806 1047.3 300.596 1041.07 301.993 1032.36 301.993L1001.84 301.993 1001.84 244.22 986.594 244.22ZM1001.84 326.692 1037.32 326.692C1045.22 326.692 1051.17 328.294 1055.12 331.526 1059.06 334.755 1061.04 339.62 1061.04 346.155 1061.04 352.585 1059.17 357.415 1055.39 360.647 1051.65 363.881 1046.04 365.481 1038.52 365.481L1001.84 365.481ZM1171.51 390.792 1202.13 390.792 1202.13 285.319C1202.13 270.451 1198.16 259.192 1190.16 251.568 1182.17 243.949 1170.39 240.136 1154.84 240.136 1138.27 240.136 1126.12 244.323 1118.4 252.69 1110.68 261.027 1107.07 273.957 1107.62 291.409L1107.62 300.152 1136.81 300.152 1136.81 291.409C1136.54 282.53 1137.86 275.93 1140.76 271.675 1143.65 267.388 1148.24 265.245 1154.57 265.245 1160.62 265.245 1164.95 266.81 1167.57 269.94 1170.19 273.071 1171.51 278.175 1171.51 285.319L1171.51 390.792" fill="#FFFFFF" fill-rule="nonzero" fill-opacity="1" transform="matrix(1.00033 0 0 -1 1293.18 1352.84)"/></g></g></g></svg>